<svg xmlns="http://www.w3.org/2000/svg" width="32" height="32" viewBox="0 0 32 32">
    <path fill="#FFF" fill-rule="evenodd" d="M16 0c8.835 0 16 7.165 16 16s-7.165 16-16 16S0 24.835 0 16 7.165 0 16 0zm.78 6.813h-1.56c-1.796.002-2.141.015-3.008.055-.978.045-1.646.2-2.23.427-.613.23-1.169.592-1.627 1.06-.468.458-.83 1.014-1.06 1.627-.227.584-.383 1.252-.427 2.23-.04.867-.053 1.212-.055 3.007v1.562c.001 1.093.007 1.648.02 2.111l.006.194c.007.223.017.438.03.702.044.978.2 1.646.426 2.23.23.613.592 1.169 1.06 1.627.459.468 1.014.83 1.627 1.06.584.227 1.252.382 2.23.427.867.04 1.212.053 3.007.055h1.562c1.795-.002 2.14-.015 3.007-.055.978-.045 1.646-.2 2.23-.427 1.234-.477 2.21-1.453 2.687-2.687.227-.584.383-1.252.427-2.23.04-.867.053-1.212.055-3.007v-1.562c-.002-1.17-.008-1.725-.022-2.209l-.007-.191c-.007-.19-.015-.38-.026-.607-.044-.978-.2-1.646-.427-2.23-.23-.613-.592-1.168-1.06-1.627-.458-.468-1.014-.83-1.627-1.06-.584-.227-1.252-.382-2.23-.427-.867-.04-1.212-.053-3.007-.055zm.209 1.656c1.07.002 1.566.008 2.033.024l.187.007.504.022c.895.04 1.382.19 1.705.316.4.147.76.382 1.057.687.305.297.54.658.687 1.057.126.323.276.81.317 1.706.037.82.05 1.153.052 2.723v1.978c-.003 1.57-.015 1.904-.052 2.724-.041.896-.191 1.382-.317 1.706-.309.801-.942 1.434-1.744 1.743-.323.126-.81.276-1.706.317-.782.035-1.122.048-2.516.052h-.429l-.238.001h-1.296l-.429-.001c-1.394-.004-1.734-.017-2.517-.052-.895-.041-1.382-.19-1.706-.317-.399-.147-.76-.382-1.056-.687-.305-.296-.54-.657-.687-1.056-.126-.324-.276-.81-.317-1.706-.04-.895-.052-1.21-.053-3.184v-1.058c.001-1.973.013-2.29.053-3.183.041-.896.19-1.383.317-1.706.147-.4.382-.76.687-1.057.296-.305.657-.54 1.057-.687.323-.126.81-.275 1.705-.317.82-.037 1.154-.05 2.724-.052zM16 11.282c-2.606 0-4.718 2.112-4.718 4.718s2.112 4.718 4.718 4.718c2.605 0 4.718-2.112 4.718-4.718S18.605 11.282 16 11.282zm0 1.655c1.691 0 3.063 1.372 3.063 3.063S17.69 19.063 16 19.063 12.937 17.69 12.937 16 14.31 12.937 16 12.937zm4.904-2.944c-.609 0-1.102.494-1.102 1.103s.493 1.102 1.102 1.102c.61 0 1.103-.493 1.103-1.102 0-.61-.494-1.103-1.103-1.103z"/>
</svg>
