<svg xmlns="http://www.w3.org/2000/svg" width="120" height="120" viewBox="0 0 24 24">
    <g fill="none" fill-rule="evenodd">
        <circle cx="12" cy="12" r="12" fill="#76AC24"/>
        <g>
            <path d="M0 0L18 0 18 18 0 18z" transform="translate(3 3)"/>
            <path fill="#FFF" d="M5.413 8.193c.96 1.887 2.507 3.427 4.394 4.394l1.466-1.467c.18-.18.447-.24.68-.16.747.247 1.554.38 2.38.38.367 0 .667.3.667.667v2.326c0 .367-.3.667-.667.667C8.073 15 3 9.927 3 3.667 3 3.3 3.3 3 3.667 3H6c.367 0 .667.3.667.667 0 .833.133 1.633.38 2.38.073.233.02.493-.167.68L5.413 8.193z" transform="translate(3 3)"/>
        </g>
    </g>
</svg>
