<svg xmlns="http://www.w3.org/2000/svg" width="32" height="32" viewBox="0 0 32 32">
    <path fill="#FFF" fill-rule="evenodd" d="M16 0C7.178 0 0 7.178 0 16s7.178 16 16 16 16-7.178 16-16S24.823 0 16 0zm6.826 12.318c.007.16.01.32.01.48 0 4.894-3.713 10.535-10.508 10.535-2.086 0-4.027-.61-5.661-1.662.289.034.583.052.88.052 1.732 0 3.323-.592 4.588-1.585-1.616-.03-2.98-1.1-3.45-2.573.224.043.457.067.694.067.336 0 .664-.044.973-.129-1.69-.34-2.962-1.836-2.962-3.631v-.047c.498.277 1.068.444 1.673.463-.99-.663-1.643-1.797-1.643-3.082 0-.679.182-1.315.5-1.862 1.82 2.241 4.543 3.715 7.612 3.87-.063-.271-.095-.553-.095-.844 0-2.045 1.653-3.703 3.692-3.703 1.063 0 2.022.45 2.696 1.169.843-.166 1.631-.473 2.347-.9-.278.866-.862 1.591-1.627 2.05.748-.09 1.462-.288 2.122-.582-.493.74-1.12 1.394-1.841 1.914z"/>
</svg>
