<svg xmlns="http://www.w3.org/2000/svg" width="48" height="48" viewBox="0 0 48 48">
    <path fill="#76ac24" fill-rule="evenodd" d="M24 0c13.255 0 24 10.745 24 24S37.255 48 24 48 0 37.255 0 24 10.745 0 24 0zm.79 8.8c-7.865 0-14.267 6.402-14.27 14.27-.001 2.515.656 4.97 1.905 7.135L10.4 37.6l7.565-1.985c2.085 1.137 4.432 1.737 6.82 1.738 7.874-.004 14.274-6.405 14.277-14.271.002-3.814-1.481-7.4-4.176-10.097-2.694-2.697-6.277-4.183-10.095-4.185zm.006 2.41c3.168.002 6.146 1.237 8.386 3.479 2.24 2.242 3.472 5.222 3.47 8.392-.002 6.54-5.323 11.861-11.86 11.861-2.134 0-4.222-.572-6.043-1.653l-.433-.257-4.49 1.178 1.199-4.378-.282-.448c-1.188-1.889-1.815-4.072-1.814-6.313.003-6.54 5.324-11.86 11.867-11.86zm-5.058 5.27c-.237 0-.624.089-.95.446-.327.357-1.248 1.22-1.248 2.975 0 1.755 1.277 3.45 1.456 3.689.178.238 2.514 3.84 6.091 5.384.85.367 1.515.587 2.033.751.854.271 1.632.233 2.246.141.685-.102 2.11-.862 2.407-1.695.297-.833.297-1.547.208-1.696-.09-.149-.327-.238-.684-.416-.356-.179-2.11-1.041-2.436-1.16-.327-.12-.565-.179-.803.178-.237.357-.92 1.16-1.129 1.398-.208.238-.416.268-.772.09-.357-.18-1.506-.556-2.868-1.77-1.06-.946-1.775-2.114-1.983-2.47-.208-.358-.023-.55.156-.728.16-.16.356-.417.535-.625.178-.208.237-.357.356-.595.12-.238.06-.446-.03-.625-.089-.178-.802-1.933-1.099-2.647-.29-.696-.583-.602-.802-.613-.208-.01-.446-.012-.684-.012z"/>
</svg>
